<?xml version="1.0" standalone="no"?>
<!DOCTYPE svg PUBLIC "-//W3C//DTD SVG 20010904//EN"
 "http://www.w3.org/TR/2001/REC-SVG-20010904/DTD/svg10.dtd">
<svg version="1.0" xmlns="http://www.w3.org/2000/svg"
 width="128.000000pt" height="128.000000pt" viewBox="0 0 128.000000 128.000000"
 preserveAspectRatio="xMidYMid meet">

<g transform="translate(0.000000,128.000000) scale(0.100000,-0.100000)"
fill="#000000" stroke="none">
<path d="M0 640 l0 -640 447 0 448 0 -242 243 c-158 159 -249 257 -264 287
-27 56 -29 155 -4 215 11 27 95 118 263 288 l246 247 -447 0 -447 0 0 -640z"/>
<path d="M953 1262 c10 -10 17 -27 17 -37 0 -11 -103 -122 -244 -264 -261
-263 -265 -269 -251 -354 7 -38 28 -63 251 -288 141 -142 244 -253 244 -264 0
-10 -7 -27 -17 -37 -16 -17 -10 -18 155 -18 l172 0 0 640 0 640 -172 0 c-165
0 -171 -1 -155 -18z"/>
</g>
</svg>
