<?xml version="1.0" standalone="no"?>
<!DOCTYPE svg PUBLIC "-//W3C//DTD SVG 20010904//EN"
 "http://www.w3.org/TR/2001/REC-SVG-20010904/DTD/svg10.dtd">
<svg version="1.0" xmlns="http://www.w3.org/2000/svg"
 width="128.000000pt" height="128.000000pt" viewBox="0 0 128.000000 128.000000"
 preserveAspectRatio="xMidYMid meet">

<g transform="translate(0.000000,128.000000) scale(0.100000,-0.100000)"
fill="#000000" stroke="none">
<path d="M0 640 l0 -640 177 0 c170 0 176 1 160 18 -10 10 -17 27 -17 38 0 11
96 115 239 259 344 346 344 304 0 650 -143 144 -239 248 -239 259 0 11 7 28
17 38 16 17 10 18 -160 18 l-177 0 0 -640z"/>
<path d="M637 1038 c267 -268 285 -293 285 -398 0 -105 -18 -130 -285 -397
l-242 -243 443 0 442 0 0 640 0 640 -442 0 -443 0 242 -242z"/>
</g>
</svg>
