<?xml version="1.0" standalone="no"?>
<!DOCTYPE svg PUBLIC "-//W3C//DTD SVG 20010904//EN"
 "http://www.w3.org/TR/2001/REC-SVG-20010904/DTD/svg10.dtd">
<svg version="1.0" xmlns="http://www.w3.org/2000/svg"
 width="500.000000pt" height="500.000000pt" viewBox="0 0 500.000000 500.000000"
 preserveAspectRatio="xMidYMid meet">

<g transform="translate(0.000000,500.000000) scale(0.100000,-0.100000)"
fill="#000000" stroke="none">
<path d="M2510 4648 c-35 -156 -66 -290 -69 -300 -4 -11 -57 61 -171 233 -91
137 -170 249 -175 249 -6 0 -30 -127 -54 -287 -25 -159 -47 -301 -51 -317 -5
-28 -10 -23 -88 97 l-82 127 -123 -81 c-67 -45 -123 -85 -125 -89 -4 -11 68
-120 80 -120 5 0 32 16 61 35 28 19 55 35 59 35 9 0 108 -145 108 -159 0 -5
-29 -24 -64 -41 -146 -72 -266 -28 -344 127 -69 134 -21 236 165 355 51 33 93
62 93 65 0 3 -16 32 -36 64 -22 37 -40 57 -47 52 -77 -45 -198 -135 -242 -179
-136 -139 -152 -307 -44 -475 51 -79 113 -137 179 -168 46 -22 69 -26 135 -25
97 1 154 21 286 100 50 31 105 61 120 66 16 5 29 15 30 21 6 89 56 441 62 440
5 -1 61 -87 126 -190 l117 -188 38 2 c20 2 55 7 77 13 34 10 39 14 33 32 -7
22 76 411 86 402 3 -3 30 -103 61 -222 l56 -217 63 -17 c44 -12 67 -14 76 -7
7 6 72 84 146 174 73 90 134 162 136 160 1 -1 -9 -53 -23 -115 -14 -62 -25
-114 -25 -116 0 -1 15 -6 33 -9 17 -4 35 -9 39 -12 4 -2 -17 -38 -47 -80 -30
-42 -55 -81 -55 -87 0 -12 282 -216 298 -216 5 0 26 25 48 57 l39 56 -25 19
c-14 10 -55 40 -92 66 l-68 49 47 64 c25 35 49 68 53 72 4 5 64 -32 134 -82
69 -50 129 -91 134 -91 13 0 84 112 76 119 -5 4 -64 47 -132 95 l-122 87 51
74 52 74 56 -41 c87 -62 131 -91 134 -87 54 74 77 113 70 119 -4 4 -73 54
-152 110 -119 85 -146 100 -157 88 -7 -7 -60 -80 -118 -162 -58 -83 -106 -145
-106 -139 0 7 20 100 45 209 25 108 45 198 45 200 0 4 -63 21 -111 29 l-37 7
-198 -256 c-109 -140 -199 -254 -200 -253 -1 1 -35 142 -75 312 -40 171 -75
314 -79 318 -7 8 -111 36 -136 37 -5 0 -39 -127 -74 -282z"/>
<path d="M2047 3712 c-180 -180 -327 -330 -327 -333 0 -3 27 -14 61 -24 l60
-19 272 272 272 272 125 -125 125 -125 -204 -204 c-112 -112 -201 -208 -197
-214 3 -6 29 -18 57 -27 l51 -17 257 256 256 256 181 -181 181 -181 59 17 c32
10 61 19 64 22 6 5 -473 483 -485 483 -5 0 -38 -28 -72 -62 l-63 -63 -163 163
c-89 89 -167 162 -172 162 -6 0 -157 -147 -338 -328z"/>
<path d="M1288 3007 c-74 -124 -132 -232 -139 -260 -34 -140 38 -286 174 -351
l56 -26 -6 -375 -6 -375 34 -14 c19 -8 287 -99 595 -201 l561 -188 579 193
c318 106 585 195 592 197 9 4 12 90 12 384 l0 378 70 37 c73 38 121 90 151
164 20 51 17 176 -5 220 -36 69 -248 420 -257 426 -5 3 -264 -79 -574 -183
l-565 -188 -563 188 c-309 103 -567 187 -572 187 -6 0 -67 -96 -137 -213z
m682 -88 c267 -89 488 -164 491 -168 7 -6 -29 -68 -182 -316 -75 -123 -117
-158 -193 -159 -27 0 -161 39 -386 114 -330 110 -347 116 -387 156 -27 28 -44
55 -49 79 -14 77 -1 114 102 287 54 92 103 167 109 167 5 1 228 -72 495 -160z
m1738 64 c140 -230 152 -254 152 -308 0 -60 -24 -109 -71 -146 -23 -19 -145
-64 -387 -144 -352 -116 -354 -117 -403 -105 -31 8 -62 24 -82 44 -30 28 -252
385 -259 415 -2 9 146 64 482 176 267 90 490 164 497 164 6 1 38 -43 71 -96z
m-1212 -1609 c-3 -7 -187 50 -503 155 l-498 166 -3 318 c-2 231 1 317 9 317 6
0 126 -38 266 -85 302 -101 339 -105 442 -54 75 38 107 75 208 244 l78 130 3
-590 c1 -324 0 -595 -2 -601z m219 1038 c86 -147 145 -210 222 -236 90 -31
137 -23 413 69 140 47 258 85 262 85 5 0 8 -143 8 -318 l0 -317 -487 -163
c-269 -90 -494 -166 -500 -169 -10 -4 -13 120 -13 598 0 332 4 599 8 594 5 -6
44 -70 87 -143z"/>
<path d="M1671 2132 c-19 -16 -91 -257 -91 -303 0 -36 104 -65 128 -36 8 9 53
157 48 157 -1 0 -16 4 -34 9 -27 8 -34 7 -39 -6 -3 -8 -1 -18 5 -22 8 -5 8
-21 -2 -56 -9 -39 -17 -51 -34 -53 -16 -2 -22 2 -22 15 0 19 66 262 73 269 2
3 12 1 22 -2 17 -7 17 -42 0 -85 -4 -12 1 -18 19 -21 23 -5 26 -1 37 49 14 63
7 75 -53 91 -31 9 -41 7 -57 -6z"/>
<path d="M1807 1928 c-58 -121 -74 -164 -65 -170 20 -12 38 -10 38 5 0 27 24
46 53 40 25 -5 27 -9 25 -42 -3 -30 0 -36 18 -39 19 -3 22 3 27 60 4 35 10
118 13 186 7 117 6 122 -13 122 -15 0 -35 -33 -96 -162z m68 0 c-10 -90 -13
-97 -35 -91 -11 3 -20 8 -20 12 0 10 53 131 57 131 2 0 1 -24 -2 -52z"/>
<path d="M1970 1893 c-25 -92 -45 -172 -45 -178 0 -5 9 -10 20 -10 16 0 25 16
48 95 l27 95 -5 -61 c-5 -56 -4 -62 15 -67 17 -4 24 3 41 44 12 27 24 48 26
46 2 -3 -6 -44 -18 -92 -19 -73 -20 -88 -8 -96 8 -5 17 -9 20 -9 5 0 99 334
99 352 0 3 -12 8 -26 11 -25 4 -29 -1 -69 -87 -48 -100 -50 -99 -35 23 6 46
10 85 8 86 -2 2 -14 6 -28 10 -26 6 -26 5 -70 -162z"/>
<path d="M2230 1996 c0 -2 -21 -79 -46 -171 -25 -92 -43 -169 -41 -172 3 -2
29 -11 58 -18 40 -11 55 -11 60 -3 11 17 3 26 -31 33 -33 7 -37 21 -19 76 6
19 12 39 14 46 3 8 13 9 34 3 23 -6 31 -5 35 7 9 21 9 21 -24 28 -34 8 -34 4
-17 70 13 49 14 50 53 50 55 0 51 24 -6 41 -45 14 -70 17 -70 10z"/>
<path d="M3380 2136 c-55 -15 -57 7 31 -329 8 -29 14 -37 27 -33 9 3 36 10 60
16 58 15 59 43 0 38 l-41 -3 -13 50 c-18 66 -18 65 15 76 40 14 31 43 -11 35
-31 -6 -40 6 -53 77 -6 33 -5 35 29 47 24 8 33 16 29 26 -6 16 -12 16 -73 0z"/>
<path d="M3197 2088 c-28 -8 -36 -14 -33 -27 3 -9 19 -72 36 -141 43 -175 49
-190 69 -190 28 0 30 8 15 63 -16 62 -16 57 -5 57 5 0 23 -22 40 -50 32 -52
34 -53 63 -42 16 6 15 12 -12 52 -23 35 -29 52 -24 76 6 33 -28 178 -48 201
-12 15 -47 15 -101 1z m85 -103 c22 -88 22 -92 -1 -98 -17 -4 -22 6 -40 72
-26 97 -26 103 1 99 18 -2 25 -15 40 -73z"/>
<path d="M3043 2049 c-54 -16 -55 -31 -17 -184 19 -76 40 -147 45 -157 20 -37
129 -8 129 34 0 45 -71 293 -87 306 -19 14 -25 14 -70 1z m74 -165 c18 -71 31
-135 28 -141 -9 -27 -34 -12 -44 25 -51 194 -59 237 -48 244 7 4 16 6 22 5 5
-2 24 -62 42 -133z"/>
<path d="M2898 2012 c-45 -11 -58 -18 -58 -33 0 -15 5 -18 23 -14 21 6 24 -1
62 -152 36 -141 43 -158 60 -155 11 2 21 5 23 7 2 1 -15 73 -37 160 -37 150
-38 158 -20 162 19 5 26 28 12 36 -5 2 -34 -3 -65 -11z"/>
<path d="M2723 1965 c-38 -16 -39 -24 -17 -109 21 -80 29 -89 76 -83 37 5 38
4 48 -36 6 -23 13 -49 16 -58 5 -17 -21 -34 -36 -24 -4 2 -10 19 -14 36 -4 22
-11 30 -23 27 -14 -3 -17 -12 -16 -43 4 -53 21 -68 67 -60 20 4 46 15 58 25
21 17 21 17 3 86 -23 88 -29 95 -78 92 l-40 -3 -13 50 c-15 55 -12 75 10 75 9
0 20 -16 26 -41 8 -30 15 -39 26 -35 9 3 18 6 20 6 9 0 3 43 -10 75 -12 28
-20 35 -43 35 -15 -1 -43 -7 -60 -15z"/>
<path d="M1375 1168 c-60 -127 -113 -240 -117 -250 -7 -16 14 -29 158 -98 103
-49 176 -91 195 -111 38 -40 39 -86 3 -128 -37 -45 -90 -43 -206 9 l-89 39
-35 -76 c-19 -41 -33 -77 -32 -78 2 -2 35 -18 73 -38 183 -91 320 -90 414 4
83 82 96 224 29 297 l-21 22 27 0 c14 0 43 7 64 16 120 50 176 205 118 329
-38 81 -99 128 -282 216 -90 44 -169 79 -176 79 -7 0 -62 -104 -123 -232z
m401 -106 c28 -42 24 -97 -9 -129 -39 -40 -98 -37 -199 10 -43 20 -78 38 -78
40 0 2 20 48 45 101 l45 97 90 -46 c50 -27 96 -58 106 -73z"/>
<path d="M3516 1341 c-56 -23 -92 -44 -97 -56 -5 -11 -22 -81 -39 -155 -17
-74 -36 -152 -41 -173 l-10 -39 -27 18 c-15 10 -47 30 -72 46 l-45 28 -92 -38
c-51 -21 -95 -41 -99 -44 -3 -3 60 -47 140 -98 80 -51 146 -99 146 -106 0 -8
-27 -128 -60 -267 -33 -140 -60 -261 -60 -270 0 -18 21 -12 151 44 l45 20 44
187 c24 103 45 189 47 191 1 2 34 -17 72 -42 l70 -46 97 39 c54 22 99 42 101
44 2 2 -63 45 -144 96 -81 51 -149 94 -151 95 -1 1 27 124 63 274 36 149 65
276 65 281 0 14 -4 13 -104 -29z"/>
<path d="M2345 1093 c-229 -30 -385 -224 -385 -478 0 -274 188 -466 455 -465
136 1 234 41 321 131 145 153 175 397 72 590 -82 156 -274 247 -463 222z m154
-179 c67 -20 131 -78 162 -147 19 -42 24 -69 24 -142 0 -82 -3 -97 -33 -157
-51 -103 -128 -151 -243 -151 -83 0 -143 27 -198 89 -50 57 -71 119 -71 210 0
220 164 356 359 298z"/>
<path d="M2372 700 c-58 -24 -59 -125 -1 -155 42 -22 67 -18 100 14 39 40 39
82 0 122 -30 30 -58 35 -99 19z"/>
</g>
</svg>
