<?xml version="1.0" standalone="no"?>
<!DOCTYPE svg PUBLIC "-//W3C//DTD SVG 20010904//EN"
 "http://www.w3.org/TR/2001/REC-SVG-20010904/DTD/svg10.dtd">
<svg version="1.0" xmlns="http://www.w3.org/2000/svg"
 width="391.000000pt" height="84.000000pt" viewBox="0 0 391.000000 84.000000"
 preserveAspectRatio="xMidYMid meet">

<g transform="translate(0.000000,84.000000) scale(0.100000,-0.100000)"
fill="white" stroke="none">
<path d="M1958 804 c-5 -4 -8 -103 -8 -220 l0 -212 149 -3 c133 -4 153 -6 178
-25 23 -17 28 -29 28 -64 0 -60 -27 -78 -132 -86 l-83 -7 0 -59 c0 -46 4 -60
17 -65 9 -4 61 -2 115 4 159 18 227 76 230 195 1 62 -17 104 -63 142 l-32 27
39 40 c36 37 39 44 42 108 6 108 -34 168 -140 208 -46 17 -327 32 -340 17z
m302 -149 c32 -16 44 -45 38 -91 -4 -41 -54 -64 -140 -64 l-68 0 0 85 0 85 70
0 c44 0 82 -6 100 -15z"/>
<path d="M2773 800 c-224 -33 -350 -281 -262 -515 25 -68 97 -148 163 -183 46
-25 61 -27 161 -27 95 0 116 3 157 24 220 109 266 436 86 613 -74 72 -187 105
-305 88z m169 -152 c139 -78 145 -341 9 -421 -110 -65 -244 -26 -304 87 -31
58 -31 184 0 241 60 113 187 153 295 93z"/>
<path d="M2786 478 c-9 -12 -16 -33 -16 -45 0 -53 78 -84 113 -45 22 25 21 75
-1 95 -27 25 -78 22 -96 -5z"/>
<path d="M3744 802 c-5 -4 -46 -58 -89 -120 -43 -62 -82 -115 -86 -118 -4 -2
-23 18 -43 46 l-36 50 -80 0 c-44 0 -80 -3 -80 -6 0 -3 32 -51 72 -106 39 -56
71 -106 71 -112 0 -6 -55 -89 -122 -184 -67 -95 -119 -177 -116 -182 3 -6 37
-10 74 -10 79 0 72 -5 180 148 40 56 77 100 82 96 5 -3 23 -25 39 -50 l31 -44
79 0 c44 0 80 3 80 8 0 4 -34 54 -75 111 -41 58 -71 109 -68 115 4 6 60 86
125 177 65 91 118 171 118 178 0 12 -138 16 -156 3z"/>
<path d="M255 561 c-63 -8 -146 -40 -179 -69 -38 -34 -66 -112 -66 -186 0 -94
17 -143 67 -193 51 -52 112 -71 238 -75 l90 -3 0 165 0 165 -95 0 -95 0 0 -50
0 -50 48 -3 47 -3 0 -65 0 -64 -33 0 c-43 0 -115 38 -141 73 -14 19 -21 48
-24 95 -3 57 0 72 20 102 31 46 97 69 201 70 l78 0 -3 48 -3 47 -45 1 c-25 1
-72 -2 -105 -5z"/>
<path d="M877 563 c-4 -3 -7 -122 -7 -264 l0 -259 24 -6 c13 -3 35 -4 47 -2
24 3 24 4 27 146 1 78 6 142 10 142 4 0 38 -59 76 -131 l68 -130 47 3 46 3 67
130 67 130 3 -80 3 -80 45 0 45 0 0 200 0 200 -45 0 c-52 0 -43 14 -169 -255
l-63 -135 -99 198 -99 197 -43 0 c-24 0 -47 -3 -50 -7z"/>
<path d="M1493 564 c-10 -4 -13 -67 -13 -264 0 -226 2 -259 16 -264 9 -3 65
-6 125 -6 106 0 109 1 115 24 3 13 4 35 2 47 -3 22 -8 24 -73 27 -40 2 -73 8
-77 15 -4 7 -8 33 -8 59 l0 47 108 3 107 3 3 47 3 47 -108 3 -108 3 0 55 0 55
75 5 75 5 0 45 0 45 -115 2 c-63 1 -121 -1 -127 -3z"/>
<path d="M536 305 c-69 -177 -96 -259 -89 -266 6 -6 28 -9 49 -7 l39 3 50 142
c28 79 53 143 56 143 4 0 28 -60 54 -132 26 -73 52 -139 57 -145 12 -15 84
-18 92 -4 3 4 -10 46 -28 92 -18 46 -64 162 -101 257 -37 94 -70 172 -74 172
-3 0 -51 -115 -105 -255z"/>
</g>
</svg>
